<svg version="1.1" id="Layer_1" xmlns="http://www.w3.org/2000/svg" xmlns:xlink="http://www.w3.org/1999/xlink" x="0px" y="0px"
	 width="100%" viewBox="0 0 300 300" enable-background="new 0 0 300 300" xml:space="preserve">
<path fill="#000000" opacity="1.000000" stroke="none" 
	d="
M301.000000,139.000000 
	C301.000000,193.333328 301.000000,247.166641 301.000000,301.000000 
	C201.000031,301.000000 101.000053,301.000000 1.000062,301.000000 
	C1.000041,201.000046 1.000041,101.000092 1.000021,1.000102 
	C100.999939,1.000068 200.999878,1.000068 300.999908,1.000034 
	C301.000000,46.833332 301.000000,92.666664 301.000000,139.000000 
M15.004365,180.396103 
	C15.333926,181.479828 15.778493,182.543076 15.975445,183.650391 
	C18.206854,196.195770 23.311766,207.664780 29.299932,218.762604 
	C37.136246,233.285568 46.869194,246.464951 60.122623,256.408752 
	C70.730881,264.367920 81.681679,272.120239 93.340279,278.357117 
	C104.266769,284.202362 116.512421,287.010651 128.892700,289.197876 
	C149.537674,292.845245 169.843552,291.596222 189.695541,285.761688 
	C200.260422,282.656586 210.582764,278.064087 220.268753,272.776703 
	C237.360703,263.446472 251.535294,250.414780 263.018829,234.643646 
	C276.087280,216.695786 284.530975,196.875534 288.221008,174.809677 
	C291.090668,157.649567 291.196594,140.503647 287.673615,123.784355 
	C280.851837,91.409538 264.583588,64.340866 238.741974,43.124180 
	C214.143799,22.928377 185.744904,13.439584 154.387863,12.142111 
	C147.245117,11.846561 140.035065,13.411234 132.844879,13.978819 
	C118.438049,15.116076 104.929192,19.566927 91.982651,25.597385 
	C72.153191,34.833889 55.460499,48.098122 41.928951,65.439644 
	C33.159496,76.678246 26.032488,88.803864 21.144363,102.091103 
	C16.780107,113.954323 13.860254,126.163795 12.704448,138.958344 
	C11.460995,152.723114 12.419423,166.105927 15.004365,180.396103 
z"/>
<path fill="#BC7FFE" opacity="1.000000" stroke="none" 
	d="
M14.998220,179.960892 
	C12.419423,166.105927 11.460995,152.723114 12.704448,138.958344 
	C13.860254,126.163795 16.780107,113.954323 21.144363,102.091103 
	C26.032488,88.803864 33.159496,76.678246 41.928951,65.439644 
	C55.460499,48.098122 72.153191,34.833889 91.982651,25.597385 
	C104.929192,19.566927 118.438049,15.116076 132.844879,13.978819 
	C140.035065,13.411234 147.245117,11.846561 154.387863,12.142111 
	C185.744904,13.439584 214.143799,22.928377 238.741974,43.124180 
	C264.583588,64.340866 280.851837,91.409538 287.673615,123.784355 
	C291.196594,140.503647 291.090668,157.649567 288.221008,174.809677 
	C284.530975,196.875534 276.087280,216.695786 263.018829,234.643646 
	C251.535294,250.414780 237.360703,263.446472 220.268753,272.776703 
	C210.582764,278.064087 200.260422,282.656586 189.695541,285.761688 
	C169.843552,291.596222 149.537674,292.845245 128.892700,289.197876 
	C116.512421,287.010651 104.266769,284.202362 93.340279,278.357117 
	C81.681679,272.120239 70.730881,264.367920 60.122623,256.408752 
	C46.869194,246.464951 37.136246,233.285568 29.299932,218.762604 
	C23.311766,207.664780 18.206854,196.195770 15.975445,183.650391 
	C15.778493,182.543076 15.333926,181.479828 14.998220,179.960892 
M283.913025,127.747284 
	C277.817017,95.173508 262.038147,68.228035 236.110886,47.638435 
	C201.869766,20.446590 163.133682,10.940165 120.335434,20.833757 
	C90.710281,27.682148 65.961212,42.931767 46.711163,66.721581 
	C22.422495,96.738289 12.317675,131.110962 17.293200,169.231323 
	C21.868874,204.288208 37.922852,233.826752 65.755630,255.955017 
	C97.797241,281.429535 134.515320,291.292816 174.919357,283.806274 
	C218.973755,275.643372 251.531799,250.995499 271.795746,211.074341 
	C284.951538,185.156616 288.981506,157.442276 283.913025,127.747284 
z"/>
<path fill="#A34EFE" opacity="1.000000" stroke="none" 
	d="
M283.947144,128.182129 
	C288.981506,157.442276 284.951538,185.156616 271.795746,211.074341 
	C251.531799,250.995499 218.973755,275.643372 174.919357,283.806274 
	C134.515320,291.292816 97.797241,281.429535 65.755630,255.955017 
	C37.922852,233.826752 21.868874,204.288208 17.293200,169.231323 
	C12.317675,131.110962 22.422495,96.738289 46.711163,66.721581 
	C65.961212,42.931767 90.710281,27.682148 120.335434,20.833757 
	C163.133682,10.940165 201.869766,20.446590 236.110886,47.638435 
	C262.038147,68.228035 277.817017,95.173508 283.947144,128.182129 
M251.949051,87.678123 
	C245.140717,79.792511 238.652924,71.599609 231.452896,64.089508 
	C219.020065,51.121243 203.430054,42.905750 186.598862,37.428986 
	C171.087830,32.381798 155.109695,30.874655 138.630951,32.793545 
	C123.863403,34.513172 109.890503,38.474773 96.904411,45.181767 
	C77.199921,55.358654 61.442535,70.070427 49.892925,89.264328 
	C39.426327,106.658424 33.507450,125.302452 33.074173,145.575073 
	C32.933582,152.153152 33.464146,158.767410 34.041016,165.334091 
	C35.028664,176.576752 38.284603,187.246796 42.893883,197.516495 
	C49.782982,212.865753 58.828003,226.722549 72.003578,237.404068 
	C79.197945,243.236572 86.467163,249.280685 94.556076,253.648987 
	C119.031357,266.866547 145.150314,270.952393 172.721893,266.068329 
	C202.756241,260.747955 227.041763,245.661438 245.310257,221.841461 
	C262.679138,199.194489 270.814209,173.214020 269.174225,144.145340 
	C268.034943,123.951942 262.803375,105.445473 251.949051,87.678123 
z"/>
<path fill="#000000" opacity="1.000000" stroke="none" 
	d="
M252.005188,88.045609 
	C262.803375,105.445473 268.034943,123.951942 269.174225,144.145340 
	C270.814209,173.214020 262.679138,199.194489 245.310257,221.841461 
	C227.041763,245.661438 202.756241,260.747955 172.721893,266.068329 
	C145.150314,270.952393 119.031357,266.866547 94.556076,253.648987 
	C86.467163,249.280685 79.197945,243.236572 72.003578,237.404068 
	C58.828003,226.722549 49.782982,212.865753 42.893883,197.516495 
	C38.284603,187.246796 35.028664,176.576752 34.041016,165.334091 
	C33.464146,158.767410 32.933582,152.153152 33.074173,145.575073 
	C33.507450,125.302452 39.426327,106.658424 49.892925,89.264328 
	C61.442535,70.070427 77.199921,55.358654 96.904411,45.181767 
	C109.890503,38.474773 123.863403,34.513172 138.630951,32.793545 
	C155.109695,30.874655 171.087830,32.381798 186.598862,37.428986 
	C203.430054,42.905750 219.020065,51.121243 231.452896,64.089508 
	C238.652924,71.599609 245.140717,79.792511 252.005188,88.045609 
M51.941559,171.700195 
	C52.065952,173.014786 51.987301,174.387558 52.344845,175.635345 
	C58.942287,198.659592 71.006836,218.052567 90.251907,232.698792 
	C105.947281,244.643555 123.765350,251.327957 143.257431,252.831528 
	C164.062866,254.436417 183.740280,249.886536 202.006500,239.524963 
	C220.792114,228.868820 234.815079,213.685135 244.085815,194.356903 
	C253.966217,173.757660 256.618469,152.074310 252.044312,129.543335 
	C245.449448,97.058998 226.967117,73.403503 198.004379,58.165306 
	C182.953949,50.246799 166.540619,46.983669 149.245697,47.838871 
	C137.056870,48.441589 125.417450,50.312321 114.034904,54.874386 
	C91.032822,64.093513 73.673538,79.384880 61.958462,101.195961 
	C50.131859,123.214699 46.574944,146.440674 51.941559,171.700195 
z"/>
<path fill="#BA7DFE" opacity="1.000000" stroke="none" 
	d="
M51.718895,171.327454 
	C46.574944,146.440674 50.131859,123.214699 61.958462,101.195961 
	C73.673538,79.384880 91.032822,64.093513 114.034904,54.874386 
	C125.417450,50.312321 137.056870,48.441589 149.245697,47.838871 
	C166.540619,46.983669 182.953949,50.246799 198.004379,58.165306 
	C226.967117,73.403503 245.449448,97.058998 252.044312,129.543335 
	C256.618469,152.074310 253.966217,173.757660 244.085815,194.356903 
	C234.815079,213.685135 220.792114,228.868820 202.006500,239.524963 
	C183.740280,249.886536 164.062866,254.436417 143.257431,252.831528 
	C123.765350,251.327957 105.947281,244.643555 90.251907,232.698792 
	C71.006836,218.052567 58.942287,198.659592 52.344845,175.635345 
	C51.987301,174.387558 52.065952,173.014786 51.718895,171.327454 
M154.327652,52.010418 
	C149.862305,52.335335 145.387604,52.564705 140.933151,53.000839 
	C114.181931,55.620052 92.450943,67.962212 75.551514,88.390121 
	C56.772373,111.090210 50.657700,137.625443 55.045486,166.515915 
	C58.762463,190.989594 70.997505,210.825500 90.261620,226.074692 
	C111.229591,242.672653 135.123138,249.930054 161.998703,247.073318 
	C191.152267,243.974457 214.402130,230.609695 231.487991,207.033875 
	C246.774063,185.941498 252.680710,162.189209 249.020065,136.243484 
	C245.220688,109.314301 232.014389,87.931778 210.424835,71.701294 
	C194.130371,59.451546 175.432510,53.592342 154.327652,52.010418 
z"/>
<path fill="#A34EFE" opacity="1.000000" stroke="none" 
	d="
M154.796967,52.013947 
	C175.432510,53.592342 194.130371,59.451546 210.424835,71.701294 
	C232.014389,87.931778 245.220688,109.314301 249.020065,136.243484 
	C252.680710,162.189209 246.774063,185.941498 231.487991,207.033875 
	C214.402130,230.609695 191.152267,243.974457 161.998703,247.073318 
	C135.123138,249.930054 111.229591,242.672653 90.261620,226.074692 
	C70.997505,210.825500 58.762463,190.989594 55.045486,166.515915 
	C50.657700,137.625443 56.772373,111.090210 75.551514,88.390121 
	C92.450943,67.962212 114.181931,55.620052 140.933151,53.000839 
	C145.387604,52.564705 149.862305,52.335335 154.796967,52.013947 
z"/>
</svg>